# xmcd
#
# Track frame offsets:
# 150
# 24284
# 41459
# 67952
# 94632
# 118774
# 148963
# 173199
# 195881
# 215458
# 243784
#
# Disc length: 3558 seconds
#
#
# Revision: 0
# Processed by: cddbd v1.4PL0 Copyright (c) Steve Scherf et al.
# Submitted via: FreeRIP 2.10 
#
DISCID=8d0de40b
DTITLE=Test Site 67 - 4 Tone Sunburst Hoopdy
DYEAR=1900
DGENRE=Blues
TTITLE0=Down With Your Lovin'
TTITLE1=Average
TTITLE2=Behind
TTITLE3=Better Days
TTITLE4=Egyptian Skies
TTITLE5=Summertime
TTITLE6=Overwhelming
TTITLE7=I'm So Tired
TTITLE8=Shennandoah
TTITLE9=Wide Open
TTITLE10=Bartending Angel
EXTD=
EXTT0=
EXTT1=
EXTT2=
EXTT3=
EXTT4=
EXTT5=
EXTT6=
EXTT7=
EXTT8=
EXTT9=
EXTT10=
PLAYORDER=
